<?xml version="1.0" encoding="UTF-8" standalone="no"?>
<!DOCTYPE svg PUBLIC "-//W3C//DTD SVG 1.0//EN" "http://www.w3.org/TR/2001/PR-SVG-20010719/DTD/svg10.dtd">
<svg width="26cm" height="17cm" viewBox="758 158 503 326" xmlns="http://www.w3.org/2000/svg" xmlns:xlink="http://www.w3.org/1999/xlink">
  <g>
    <rect style="fill: #57acff" x="900" y="160" width="206.45" height="44.5778"/>
    <rect style="fill: none; fill-opacity:0; stroke-width: 2; stroke: #000000" x="900" y="160" width="206.45" height="44.5778"/>
    <text font-size="18.0622" style="fill: #000000;text-anchor:middle;font-family:monospace;font-style:normal;font-weight:normal" x="1003.23" y="187.8">
      <tspan x="1003.23" y="187.8">add_to_runqueue()</tspan>
    </text>
  </g>
  <g>
    <rect style="fill: #57acff" x="840" y="240" width="140" height="44.5778"/>
    <rect style="fill: none; fill-opacity:0; stroke-width: 2; stroke: #000000" x="840" y="240" width="140" height="44.5778"/>
    <text font-size="18.0622" style="fill: #000000;text-anchor:middle;font-family:monospace;font-style:normal;font-weight:normal" x="910" y="267.8">
      <tspan x="910" y="267.8">child-&gt;tid</tspan>
    </text>
  </g>
  <g>
    <rect style="fill: #ffe9bf" x="1040" y="240" width="140" height="44.5778"/>
    <rect style="fill: none; fill-opacity:0; stroke-width: 2; stroke: #000000" x="1040" y="240" width="140" height="44.5778"/>
    <text font-size="18.0622" style="fill: #000000;text-anchor:middle;font-family:monospace;font-style:normal;font-weight:normal" x="1110" y="267.8">
      <tspan x="1110" y="267.8">vanish()</tspan>
    </text>
  </g>
  <g>
    <rect style="fill: #ffe9bf" x="1120" y="320" width="140" height="44.5778"/>
    <rect style="fill: none; fill-opacity:0; stroke-width: 2; stroke: #000000" x="1120" y="320" width="140" height="44.5778"/>
    <text font-size="18.0622" style="fill: #000000;text-anchor:middle;font-family:monospace;font-style:normal;font-weight:normal" x="1190" y="347.8">
      <tspan x="1190" y="347.8">free TCB</tspan>
    </text>
  </g>
  <g>
    <rect style="fill: #57acff" x="940" y="320" width="140" height="44.5778"/>
    <rect style="fill: none; fill-opacity:0; stroke-width: 2; stroke: #000000" x="940" y="320" width="140" height="44.5778"/>
    <text font-size="18.0622" style="fill: #000000;text-anchor:middle;font-family:monospace;font-style:normal;font-weight:normal" x="1010" y="347.8">
      <tspan x="1010" y="347.8">child-&gt;tid</tspan>
    </text>
  </g>
  <g>
    <rect style="fill: #ffe9bf" x="760" y="320" width="140" height="44.5778"/>
    <rect style="fill: none; fill-opacity:0; stroke-width: 2; stroke: #000000" x="760" y="320" width="140" height="44.5778"/>
    <text font-size="18.0622" style="fill: #000000;text-anchor:middle;font-family:monospace;font-style:normal;font-weight:normal" x="830" y="347.8">
      <tspan x="830" y="347.8">vanish()</tspan>
    </text>
  </g>
  <g>
    <rect style="fill: #ffe9bf" x="760" y="400" width="140" height="44.5778"/>
    <rect style="fill: none; fill-opacity:0; stroke-width: 2; stroke: #000000" x="760" y="400" width="140" height="44.5778"/>
    <text font-size="18.0622" style="fill: #000000;text-anchor:middle;font-family:monospace;font-style:normal;font-weight:normal" x="830" y="427.8">
      <tspan x="830" y="427.8">free TCB</tspan>
    </text>
  </g>
  <g>
    <rect style="fill: #ffe9bf" x="940" y="400" width="140" height="44.5778"/>
    <rect style="fill: none; fill-opacity:0; stroke-width: 2; stroke: #000000" x="940" y="400" width="140" height="44.5778"/>
    <text font-size="18.0622" style="fill: #000000;text-anchor:middle;font-family:monospace;font-style:normal;font-weight:normal" x="1010" y="427.8">
      <tspan x="1010" y="427.8">free TCB</tspan>
    </text>
  </g>
  <g>
    <rect style="fill: #57acff" x="1120" y="400" width="140" height="44.5778"/>
    <rect style="fill: none; fill-opacity:0; stroke-width: 2; stroke: #000000" x="1120" y="400" width="140" height="44.5778"/>
    <text font-size="18.0622" style="fill: #000000;text-anchor:middle;font-family:monospace;font-style:normal;font-weight:normal" x="1190" y="427.8">
      <tspan x="1190" y="427.8">child-&gt;tid</tspan>
    </text>
  </g>
  <g>
    <line style="fill: none; fill-opacity:0; stroke-width: 2; stroke: #000000" x1="1034.31" y1="205.58" x2="1071.12" y2="233.16"/>
    <polygon style="fill: #000000" points="1077.12,237.657 1066.12,235.662 1071.12,233.16 1072.12,227.66 "/>
    <polygon style="fill: none; fill-opacity:0; stroke-width: 2; stroke: #000000" points="1077.12,237.657 1066.12,235.662 1071.12,233.16 1072.12,227.66 "/>
  </g>
  <g>
    <line style="fill: none; fill-opacity:0; stroke-width: 2; stroke: #000000" x1="976.084" y1="205.58" x2="944.53" y2="232.657"/>
    <polygon style="fill: #000000" points="938.838,237.542 943.171,227.235 944.53,232.657 949.683,234.824 "/>
    <polygon style="fill: none; fill-opacity:0; stroke-width: 2; stroke: #000000" points="938.838,237.542 943.171,227.235 944.53,232.657 949.683,234.824 "/>
  </g>
  <g>
    <line style="fill: none; fill-opacity:0; stroke-width: 2; stroke: #000000" x1="886.709" y1="285.58" x2="860.175" y2="312.113"/>
    <polygon style="fill: #000000" points="854.872,317.417 858.408,306.81 860.175,312.113 865.479,313.881 "/>
    <polygon style="fill: none; fill-opacity:0; stroke-width: 2; stroke: #000000" points="854.872,317.417 858.408,306.81 860.175,312.113 865.479,313.881 "/>
  </g>
  <g>
    <line style="fill: none; fill-opacity:0; stroke-width: 2; stroke: #000000" x1="1080.89" y1="285.58" x2="1046.72" y2="312.916"/>
    <polygon style="fill: #000000" points="1040.86,317.601 1045.55,307.45 1046.72,312.916 1051.79,315.258 "/>
    <polygon style="fill: none; fill-opacity:0; stroke-width: 2; stroke: #000000" points="1040.86,317.601 1045.55,307.45 1046.72,312.916 1051.79,315.258 "/>
  </g>
  <g>
    <line style="fill: none; fill-opacity:0; stroke-width: 2; stroke: #000000" x1="1010" y1="365.58" x2="1010" y2="389.262"/>
    <polygon style="fill: #000000" points="1010,396.762 1005,386.762 1010,389.262 1015,386.762 "/>
    <polygon style="fill: none; fill-opacity:0; stroke-width: 2; stroke: #000000" points="1010,396.762 1005,386.762 1010,389.262 1015,386.762 "/>
  </g>
  <g>
    <line style="fill: none; fill-opacity:0; stroke-width: 2; stroke: #000000" x1="1190" y1="365.58" x2="1190" y2="389.262"/>
    <polygon style="fill: #000000" points="1190,396.762 1185,386.762 1190,389.262 1195,386.762 "/>
    <polygon style="fill: none; fill-opacity:0; stroke-width: 2; stroke: #000000" points="1190,396.762 1185,386.762 1190,389.262 1195,386.762 "/>
  </g>
  <g>
    <line style="fill: none; fill-opacity:0; stroke-width: 2; stroke: #000000" x1="1133.29" y1="285.58" x2="1159.82" y2="312.113"/>
    <polygon style="fill: #000000" points="1165.13,317.417 1154.52,313.881 1159.82,312.113 1161.59,306.81 "/>
    <polygon style="fill: none; fill-opacity:0; stroke-width: 2; stroke: #000000" points="1165.13,317.417 1154.52,313.881 1159.82,312.113 1161.59,306.81 "/>
  </g>
  <g>
    <line style="fill: none; fill-opacity:0; stroke-width: 2; stroke: #000000" x1="830" y1="365.58" x2="830" y2="389.262"/>
    <polygon style="fill: #000000" points="830,396.762 825,386.762 830,389.262 835,386.762 "/>
    <polygon style="fill: none; fill-opacity:0; stroke-width: 2; stroke: #000000" points="830,396.762 825,386.762 830,389.262 835,386.762 "/>
  </g>
  <text font-size="22.5778" style="fill: #00bf00;text-anchor:start;font-family:Times New Roman;font-style:italic;font-weight:700" x="780" y="480">
    <tspan x="780" y="480">  (no bug)</tspan>
  </text>
  <text font-size="22.5778" style="fill: #00bf00;text-anchor:start;font-family:Times New Roman;font-style:italic;font-weight:700" x="960" y="480">
    <tspan x="960" y="480">  (no bug)</tspan>
  </text>
  <text font-size="22.5778" style="fill: #bf0000;text-anchor:start;font-family:Times New Roman;font-style:italic;font-weight:700" x="1120" y="480">
    <tspan x="1120" y="480">Use-after-free!</tspan>
  </text>
</svg>
